<svg width="14" height="14" viewBox="0 0 14 14" fill="none" xmlns="http://www.w3.org/2000/svg">
<path d="M10.6438 9.26128C10.1864 8.80972 9.61543 8.80972 9.16094 9.26128C8.81426 9.60504 8.46757 9.94881 8.12671 10.2984C8.03348 10.3945 7.95482 10.4149 7.8412 10.3508C7.61687 10.2285 7.37798 10.1294 7.16239 9.99542C6.15729 9.36324 5.31534 8.55044 4.56952 7.63568C4.19953 7.18121 3.87032 6.69469 3.64017 6.147C3.59355 6.0363 3.60229 5.96347 3.69261 5.87316C4.03929 5.53813 4.37724 5.19437 4.7181 4.8506C5.19298 4.37282 5.19298 3.81348 4.71519 3.33279C4.44425 3.05894 4.17331 2.79092 3.90237 2.51708C3.62269 2.2374 3.34592 1.95482 3.06333 1.67806C2.60593 1.23233 2.03492 1.23233 1.58044 1.68097C1.23084 2.02473 0.895801 2.37724 0.540374 2.71518C0.211167 3.0269 0.0451061 3.40854 0.0101461 3.85426C-0.0452074 4.57967 0.132506 5.26428 0.383053 5.93142C0.895801 7.31231 1.67658 8.53879 2.62341 9.66331C3.90237 11.184 5.42896 12.3872 7.21483 13.2554C8.01892 13.6457 8.85213 13.9458 9.75818 13.9953C10.3816 14.0303 10.9235 13.873 11.3576 13.3865C11.6548 13.0543 11.9898 12.7514 12.3044 12.4338C12.7706 11.9619 12.7735 11.3909 12.3103 10.9248C11.7567 10.3683 11.2003 9.8148 10.6438 9.26128Z" fill="#009344"/>
<path d="M10.0874 6.93939L11.1624 6.75586C10.9934 5.76826 10.5273 4.87389 9.81936 4.16305C9.07063 3.41434 8.1238 2.9424 7.08082 2.79673L6.92933 3.87755C7.73632 3.99117 8.47048 4.35533 9.05024 4.93507C9.59795 5.48276 9.95629 6.17612 10.0874 6.93939Z" fill="#009344"/>
<path d="M11.7684 2.26652C10.5273 1.02547 8.95701 0.241801 7.22357 0L7.07208 1.08082C8.56954 1.29058 9.92715 1.96937 10.9993 3.03853C12.016 4.05526 12.6832 5.34001 12.925 6.75294L14 6.56941C13.7174 4.93215 12.9454 3.44639 11.7684 2.26652Z" fill="#009344"/>
</svg>
