<?xml version="1.0" standalone="no"?>
<!DOCTYPE svg PUBLIC "-//W3C//DTD SVG 20010904//EN"
 "http://www.w3.org/TR/2001/REC-SVG-20010904/DTD/svg10.dtd">
<svg version="1.0" xmlns="http://www.w3.org/2000/svg"
 width="960.000000pt" height="960.000000pt" viewBox="0 0 960.000000 960.000000"
 preserveAspectRatio="xMidYMid meet">
<metadata>
Created by potrace 1.14, written by Peter Selinger 2001-2017
</metadata>
<g transform="translate(0.000000,960.000000) scale(0.100000,-0.100000)"
fill="#000000" stroke="none">
<path d="M44 9079 c-2 -4 16 -13 41 -20 25 -7 45 -16 45 -20 0 -6 28 -18 52
-23 21 -4 126 -107 156 -155 20 -31 37 -58 38 -61 0 -3 4 -14 8 -25 31 -81 51
-174 51 -232 0 -24 4 -43 8 -43 4 0 3 -8 -2 -19 -6 -10 -8 -21 -5 -24 3 -3 5
-36 4 -73 -2 -80 -1 -108 4 -147 2 -15 -1 -30 -6 -33 -4 -3 -6 -9 -3 -14 5 -8
9 -269 4 -295 -1 -5 -1 -14 0 -19 1 -5 2 -53 1 -105 -1 -53 -1 -102 -1 -108 0
-18 0 -141 0 -155 0 -7 0 -62 2 -121 1 -59 -1 -110 -4 -113 -3 -4 -2 -16 2
-28 4 -11 5 -32 1 -46 -4 -14 -4 -36 0 -50 3 -14 5 -36 3 -50 -2 -14 -4 -32
-4 -40 0 -24 0 -174 0 -185 2 -69 2 -152 0 -160 -1 -5 -1 -14 0 -19 1 -6 2
-38 1 -73 -1 -35 -1 -70 -1 -78 0 -8 0 -45 0 -82 0 -83 1 -110 5 -146 2 -15
-1 -30 -6 -33 -4 -3 -6 -9 -3 -14 5 -8 9 -269 4 -295 -1 -5 -1 -14 0 -19 1 -5
2 -53 1 -105 -1 -53 -1 -102 -1 -108 0 -18 0 -141 0 -155 0 -7 0 -62 2 -121 1
-59 -1 -110 -4 -113 -3 -4 -2 -16 2 -28 4 -11 5 -32 1 -46 -4 -14 -4 -36 0
-50 3 -14 5 -36 3 -50 -2 -14 -4 -32 -4 -40 0 -24 0 -174 0 -185 2 -69 2 -152
0 -160 -1 -5 -1 -14 0 -19 1 -6 2 -38 1 -73 -1 -35 -1 -70 -1 -78 0 -8 0 -45
0 -82 0 -83 1 -110 5 -146 2 -15 -1 -30 -6 -33 -4 -3 -6 -9 -3 -14 5 -8 9
-269 4 -295 -1 -5 -1 -14 0 -19 1 -5 2 -53 1 -105 -1 -53 -1 -102 -1 -108 0
-16 0 -139 0 -155 0 -7 0 -62 1 -123 1 -118 -4 -177 -22 -240 -6 -22 -11 -43
-10 -47 3 -11 -39 -120 -51 -135 -5 -7 -6 -13 -1 -13 5 0 4 -4 -1 -8 -6 -4
-16 -18 -23 -32 -26 -51 -39 -70 -81 -115 -51 -55 -131 -108 -190 -126 -28 -8
-38 -15 -28 -18 21 -8 1705 -6 1712 1 3 3 -8 8 -25 11 -59 12 -164 71 -215
122 -54 53 -115 147 -115 178 0 9 -4 17 -10 17 -5 0 -9 3 -8 8 1 4 -4 31 -11
60 -7 29 -15 74 -18 100 -7 70 -7 1859 0 1919 3 28 11 71 17 95 15 57 61 158
72 158 5 0 7 4 4 9 -6 9 120 141 172 179 93 68 363 175 502 198 14 3 48 9 75
14 28 5 68 12 90 16 22 3 54 8 70 11 35 6 60 9 135 17 30 3 93 11 140 16 79
10 147 17 194 19 34 2 8 14 -36 17 -39 2 -145 9 -273 19 -27 2 -50 5 -50 6 0
1 -20 3 -45 4 -25 2 -65 6 -90 9 -25 4 -67 9 -95 12 -52 5 -90 11 -90 14 0 1
-9 3 -20 4 -34 5 -115 20 -132 26 -5 1 -12 3 -18 4 -25 5 -73 19 -105 31 -19
7 -39 14 -45 15 -21 5 -42 14 -95 38 -30 14 -57 26 -60 27 -16 2 -125 83 -167
124 -85 84 -132 180 -150 311 -8 56 -7 1846 1 1880 28 120 93 291 127 334 10
13 19 28 19 34 0 15 134 149 158 156 12 4 22 12 22 17 0 5 3 8 8 7 7 -3 92 29
92 34 0 3 -72 1 -80 -2 -3 -2 -8 -2 -11 -2 -3 1 -41 1 -85 1 -43 0 -88 1 -99
1 -11 1 -26 1 -32 1 -7 0 -29 0 -48 0 -19 0 -48 0 -65 -1 -16 0 -38 0 -47 0
-10 0 -34 0 -53 -1 -19 -1 -43 -1 -52 -1 -10 1 -51 1 -90 1 -40 0 -82 1 -93 1
-11 1 -26 1 -32 1 -7 0 -29 0 -48 0 -19 0 -48 0 -65 -1 -16 0 -38 0 -47 0 -10
0 -34 0 -53 -1 -19 -1 -43 -1 -52 -1 -10 1 -42 1 -70 1 -95 1 -122 2 -126 6
-3 2 -12 0 -21 -5 -10 -5 -23 -5 -31 0 -8 5 -21 5 -30 0 -9 -5 -22 -5 -29 -1
-7 5 -30 5 -52 1 -22 -4 -42 -3 -45 2 -3 5 -11 5 -17 0 -7 -5 -23 -6 -37 -2
-14 3 -42 3 -62 -1 -21 -3 -40 -4 -42 -1 -8 7 -107 8 -112 1z"/>
<path d="M6317 9043 c-4 -3 -30 -7 -59 -8 -60 -3 -170 -14 -208 -20 -14 -2
-47 -7 -75 -10 -27 -4 -66 -11 -85 -15 -19 -5 -50 -12 -67 -15 -98 -16 -368
-94 -438 -126 -30 -13 -79 -32 -90 -34 -26 -6 -288 -134 -350 -171 -22 -13
-47 -27 -55 -30 -8 -4 -36 -22 -63 -41 -26 -18 -49 -33 -52 -33 -6 0 -66 -41
-75 -50 -3 -3 -21 -17 -40 -30 -37 -25 -161 -124 -220 -175 -92 -80 -333 -330
-415 -431 -31 -38 -62 -77 -70 -87 -8 -9 -15 -21 -15 -26 0 -5 -4 -11 -8 -13
-13 -5 -111 -150 -174 -258 -62 -105 -180 -340 -171 -340 3 0 -1 -10 -9 -22
-26 -40 -137 -367 -152 -448 -3 -14 -14 -68 -25 -120 -20 -92 -23 -111 -35
-195 -36 -240 -36 -662 -1 -844 2 -10 6 -42 10 -72 4 -30 11 -74 17 -99 5 -25
12 -58 14 -75 3 -16 7 -37 10 -45 3 -8 8 -26 10 -40 7 -36 43 -171 53 -195 5
-11 14 -38 20 -60 15 -49 46 -133 73 -200 40 -98 183 -380 220 -437 21 -31 38
-59 38 -62 0 -11 171 -249 190 -266 4 -3 13 -16 22 -29 53 -77 266 -295 403
-412 116 -99 248 -199 263 -199 6 0 12 -4 14 -9 4 -11 183 -124 243 -153 25
-12 45 -26 45 -30 0 -4 4 -8 9 -8 5 0 67 -27 137 -61 71 -34 136 -62 144 -64
8 -2 33 -11 55 -20 54 -24 76 -32 100 -39 11 -2 40 -12 65 -21 25 -9 52 -19
60 -21 8 -2 40 -10 70 -19 30 -9 64 -18 75 -21 11 -2 61 -13 110 -24 117 -25
143 -30 185 -35 19 -2 49 -6 67 -10 17 -3 58 -8 90 -10 32 -3 76 -7 98 -10 90
-10 451 -5 540 9 22 3 65 8 95 11 30 3 64 7 75 9 11 3 24 5 29 5 10 1 -1 15
-12 17 -46 5 -140 20 -144 23 -2 2 -14 5 -27 7 -14 2 -52 12 -85 20 -34 9 -68
17 -76 19 -33 7 -195 60 -200 65 -3 3 -12 6 -20 8 -62 12 -449 193 -458 215
-2 4 -8 7 -14 7 -5 0 -42 21 -81 47 -40 27 -76 50 -82 52 -10 5 -208 155 -243
186 -54 47 -310 303 -339 340 -17 22 -39 50 -50 62 -67 78 -153 192 -153 202
0 5 -4 11 -8 13 -5 2 -31 37 -59 78 -119 178 -248 422 -324 611 -41 104 -120
339 -134 399 -2 8 -13 56 -25 105 -12 50 -24 104 -26 120 -2 17 -6 41 -9 55
-10 43 -13 63 -19 115 -4 28 -8 61 -11 75 -2 14 -7 52 -10 84 -3 32 -8 63 -11
67 -3 5 0 9 6 9 6 0 8 5 4 12 -10 16 -15 139 -14 363 1 221 2 255 10 255 3 0
5 20 5 45 -1 25 7 92 18 148 10 56 19 116 21 132 2 17 5 30 6 30 1 0 4 11 6
25 16 89 112 405 140 458 7 14 11 29 8 34 -3 4 0 8 5 8 6 0 10 3 9 8 0 4 2 16
7 27 14 36 158 330 164 335 3 3 15 21 25 40 75 137 229 346 361 489 113 122
337 324 425 381 12 8 28 20 34 25 27 23 76 55 85 55 5 0 11 4 13 8 4 12 142
94 250 150 51 26 95 49 98 52 3 3 14 7 25 8 11 2 27 9 35 16 18 15 223 96 242
96 7 0 25 6 40 14 15 8 41 17 59 21 43 10 19 24 -30 18 -70 -9 -96 -9 -112 -1
-9 4 -19 5 -22 1z"/>
<path d="M7130 9040 c0 -7 119 -36 138 -34 6 1 12 -1 12 -5 0 -4 7 -8 15 -8
25 0 319 -97 340 -112 6 -4 37 -18 70 -31 33 -13 63 -29 67 -34 4 -6 8 -7 8
-2 0 5 6 4 13 -2 6 -5 62 -35 122 -67 61 -32 112 -60 115 -64 3 -4 31 -22 63
-41 31 -19 57 -38 57 -42 0 -4 6 -8 14 -8 8 0 16 -3 18 -7 2 -5 26 -26 53 -47
65 -51 244 -231 275 -276 13 -19 27 -37 30 -40 3 -3 22 -27 41 -55 18 -27 37
-51 42 -53 4 -2 7 -8 7 -13 0 -5 18 -38 40 -74 22 -36 37 -65 33 -65 -3 0 1
-8 9 -17 39 -46 144 -336 162 -448 2 -11 4 -20 6 -20 1 0 4 -11 5 -25 9 -66
16 -104 19 -107 3 -3 2 239 -7 1426 -2 263 -2 264 -25 272 -12 5 -22 5 -22 1
0 -4 -22 -7 -50 -7 -27 0 -50 3 -50 6 0 4 -16 3 -35 -1 -19 -4 -35 -4 -35 0 0
5 -13 5 -30 0 -19 -5 -30 -5 -30 1 0 6 -5 7 -11 3 -15 -9 -109 -11 -109 -2 0
4 -13 3 -30 -2 -17 -5 -30 -5 -30 0 0 5 -13 5 -30 0 -19 -5 -30 -5 -30 1 0 6
-5 7 -11 3 -17 -10 -50 -11 -81 -3 -16 4 -28 4 -28 0 0 -8 -53 -6 -67 2 -5 3
-15 2 -22 -3 -8 -4 -27 -4 -42 0 -16 5 -29 5 -29 1 0 -8 -53 -6 -67 2 -5 3
-15 2 -22 -3 -8 -4 -27 -4 -42 0 -16 5 -29 5 -29 1 0 -8 -53 -6 -67 2 -5 3
-15 2 -22 -3 -8 -4 -27 -4 -42 0 -16 5 -29 5 -29 1 0 -8 -58 -6 -66 2 -3 3
-21 1 -40 -3 -20 -5 -34 -4 -34 1 0 6 -8 5 -19 -1 -12 -6 -29 -6 -42 -2 -12 5
-40 6 -61 2 -21 -4 -38 -5 -38 -1 0 3 -16 6 -35 6 -19 0 -35 -2 -35 -5 0 -3
-25 -5 -55 -5 -30 0 -55 3 -55 7 0 4 -13 3 -29 -2 -16 -4 -32 -6 -35 -3 -7 7
-106 9 -106 3z"/>
<path d="M7562 5938 c-16 -6 -16 -7 0 -7 30 -2 145 -60 197 -101 28 -22 68
-64 90 -93 44 -57 99 -181 103 -228 1 -16 5 -29 8 -29 3 0 6 -10 7 -22 0 -13
4 -54 8 -93 11 -90 11 -2886 1 -3025 -4 -58 -10 -120 -12 -138 -2 -18 -6 -56
-9 -85 -9 -91 -16 -150 -26 -217 -6 -36 -12 -81 -14 -100 -2 -19 -6 -46 -9
-60 -3 -14 -9 -45 -12 -70 -18 -134 -59 -271 -89 -292 -7 -5 -7 -8 0 -8 6 0 6
-3 0 -8 -6 -4 -22 -28 -35 -55 -14 -26 -28 -47 -32 -47 -5 0 -8 -5 -8 -10 0
-13 -59 -95 -139 -195 -62 -76 -156 -173 -211 -214 -19 -14 -37 -29 -40 -33
-20 -26 -294 -170 -350 -184 -18 -4 -68 -18 -137 -37 -28 -8 -54 -12 -57 -9
-3 3 -6 1 -6 -5 0 -11 67 -10 140 2 19 3 52 7 72 9 20 3 45 7 55 10 10 3 32 8
48 11 209 36 514 151 690 260 22 14 47 28 55 32 31 14 188 129 265 193 131
109 308 293 395 410 14 18 30 38 35 44 72 77 250 393 269 476 1 3 6 19 12 35
33 89 39 114 60 245 4 25 8 704 9 1510 2 1620 -4 1484 66 1672 51 140 98 217
180 298 90 90 93 92 166 130 32 17 53 30 48 31 -61 5 -1780 2 -1793 -3z"/>
</g>
</svg>
