<svg width="60" height="60" viewBox="0 0 60 60" fill="none" xmlns="http://www.w3.org/2000/svg">
<path d="M45.2309 19.0397C44.8001 21.3759 44.0169 23.9068 42.6462 26.3208C41.9022 27.6057 41.0014 28.8517 39.9049 30.0198C39.8657 30.0587 39.8266 30.0976 39.7874 30.1366C39.7482 30.1366 39.7482 30.1755 39.7091 30.1755C38.4951 30.7206 37.1636 31.071 35.7146 31.11C35.7537 31.071 35.7929 31.0321 35.8321 31.0321C36.8894 30.2534 37.8293 29.4357 38.6517 28.5402C39.3175 28.2676 39.9441 27.8783 40.5315 27.411C40.5706 27.3721 40.6098 27.3331 40.6098 27.2942L40.649 27.2553C40.7665 27.1774 40.8839 27.0606 41.0014 26.9827C42.5287 25.5421 43.5078 23.4785 43.5078 21.2201C43.5078 20.4804 43.3903 19.7406 43.1945 19.0787C43.4295 17.8327 43.5861 16.6646 43.6644 15.5354C44.4085 16.5478 44.9568 17.7548 45.2309 19.0397Z" fill="#336633"/>
<path d="M45.6608 15.3799C45.1125 14.4454 44.4467 13.5888 43.7027 12.849C43.6635 11.603 43.546 10.6686 43.4677 10.1234C43.4285 9.85089 43.3894 9.73408 43.3894 9.69515C43.3894 9.61727 43.3894 9.57834 43.3894 9.50047C43.3894 5.33428 40.0214 1.94682 35.8703 1.90788C31.7583 2.80342 27.5679 3.27065 23.3384 3.23172C18.7956 3.27065 14.292 2.80342 9.82754 1.94682C5.63721 1.98575 2.26928 5.37321 2.26928 9.5394C2.26928 9.61727 2.26928 9.65621 2.26928 9.69515C1.8385 12.6932 1.8385 15.7303 2.26928 18.7284C3.24833 24.8803 6.18548 28.9686 11.0416 30.8376C11.5507 31.0323 11.7856 31.6163 11.5898 32.0835C11.4332 32.434 11.0807 32.7065 10.6891 32.7065C10.5716 32.7065 10.4541 32.6676 10.3366 32.6287C8.96598 32.0835 7.75196 31.4216 6.73374 30.6429C5.98967 30.0978 5.32391 29.4748 4.73648 28.8518C-1.49027 22.0769 0.15453 10.5907 0.311178 9.46153C0.389502 4.24406 4.65816 0 9.90586 0C9.98419 0 10.0234 0 10.1017 0.0389363C14.4878 0.856599 18.9131 1.2849 23.3776 1.32384C27.4504 1.32384 31.5233 0.895536 35.5178 0.0389363C35.5961 0 35.6745 0 35.7528 0C41.0005 0 45.3083 4.20512 45.3475 9.46153C45.3866 9.77302 45.5433 10.7075 45.6608 12.1092C45.6999 13.0047 45.7391 14.1339 45.6608 15.3799Z" fill="#336633"/>
<path d="M39.9442 33.1729C39.8659 33.4844 39.8268 33.7959 39.7484 34.0684C35.2448 57.0408 32.0727 60 29.8013 60C27.4124 60 27.0208 55.8727 26.4725 49.6429C25.9634 44.075 25.2193 35.7037 22.4388 35.7037C19.815 35.7037 19.3059 43.2574 18.9142 48.7474C18.4443 55.2887 18.131 60 15.2722 60C9.94615 60 5.16839 41.3495 4.65928 29.2403C4.65928 29.1235 4.65928 28.9677 4.73761 28.8509C4.85509 28.5005 5.20755 28.228 5.59917 28.228C6.14744 28.189 6.57822 28.6173 6.61738 29.1624C6.65655 29.6686 6.65655 30.1748 6.69571 30.642C7.12649 36.755 8.26219 42.7901 10.0636 48.6306C12.4134 56.0674 14.4889 58.0142 15.2722 58.0142C15.2722 58.0142 15.7813 57.8585 16.2121 55.6781C16.6037 53.3419 16.8387 50.9668 16.9562 48.5917C17.4653 41.2716 18.0135 33.718 22.4388 33.718C27.0208 33.718 27.7257 41.6999 28.4306 49.4483C28.7047 52.6021 29.1355 57.3134 29.8796 58.0532C30.467 57.9364 33.3259 56.1842 37.6337 34.5746C37.7512 33.9905 37.8687 33.4065 37.9861 32.8224C37.9861 32.7056 38.0645 32.5888 38.1036 32.511C38.5736 32.3941 39.0043 32.2773 39.4351 32.1216C39.7876 32.3552 40.0226 32.7446 39.9442 33.1729Z" fill="#336633"/>
<path d="M49.1865 21.1423C49.1865 23.9457 48.3249 26.5155 46.8759 28.696C46.8759 28.696 46.8759 28.696 46.8759 28.7349C46.5235 29.28 46.0927 29.8251 45.6619 30.2534L44.2912 28.8906C44.722 28.4234 45.1136 27.8783 45.4661 27.3332C46.5626 25.5421 47.2284 23.4396 47.2284 21.1812C47.2284 19.0787 46.6801 17.0929 45.6619 15.3797C45.1136 14.4453 44.4479 13.5887 43.7038 12.8489C41.5891 10.7852 38.6911 9.53928 35.519 9.53928C29.0572 9.53928 23.8095 14.7568 23.8095 21.1812C23.8095 27.6057 29.0572 32.8232 35.519 32.8232C36.4197 32.8232 37.2812 32.7453 38.1036 32.5507C38.5736 32.4338 39.0044 32.317 39.4352 32.1613C39.7876 32.0445 40.1401 31.8887 40.4925 31.733C40.4925 31.733 40.5317 31.733 40.5317 31.6941C41.1191 31.4215 41.6674 31.0711 42.2157 30.7207L43.6255 32.1224C43.1164 32.5117 42.5289 32.8621 41.9807 33.1736C41.9807 33.1736 41.9807 33.1736 41.9415 33.1736C41.2366 33.5241 40.5317 33.8356 39.7485 34.1081C39.0827 34.3417 38.3778 34.4975 37.6337 34.6143C36.9288 34.7311 36.2239 34.77 35.4798 34.77C27.9215 34.77 21.8123 28.657 21.8123 21.1812C21.8123 13.6665 27.9607 7.59247 35.4798 7.59247C38.4561 7.59247 41.1974 8.52694 43.4297 10.1623C44.2129 10.7463 44.957 11.3693 45.5836 12.1091C47.855 14.4842 49.1865 17.677 49.1865 21.1423Z" fill="#336633"/>
<path d="M45.2309 19.0397C44.9176 17.7548 44.4086 16.5479 43.6254 15.4966C41.8631 12.9657 38.8868 11.2915 35.5189 11.2915C30.0362 11.2915 25.5717 15.7302 25.5717 21.1813C25.5717 26.6324 30.0362 31.0711 35.5189 31.0711C35.5972 31.0711 35.6755 31.0711 35.7538 31.0711C37.2028 31.0322 38.5343 30.6817 39.7484 30.1366C39.7875 30.1366 39.7875 30.0977 39.8267 30.0977C40.6099 29.7083 41.3932 29.2022 42.0197 28.6571C42.0981 28.5792 42.1764 28.5402 42.2547 28.4624C42.9205 27.8394 43.5079 27.1775 43.9778 26.3988C44.9569 24.8802 45.5052 23.0892 45.5052 21.1813C45.5052 20.4415 45.4267 19.7406 45.2309 19.0397ZM35.558 29.0854C31.1719 29.0854 27.569 25.5032 27.569 21.1423C27.569 16.7815 31.1327 13.2383 35.5189 13.2383C39.1609 13.2383 42.2547 15.6913 43.1946 19.0398C43.3904 19.7406 43.5079 20.4415 43.5079 21.1813C43.5079 23.4396 42.5289 25.5032 41.0015 26.9439C40.884 27.0607 40.7665 27.1774 40.649 27.2553C40.6098 27.2942 40.5708 27.3332 40.5316 27.3722C39.9833 27.8394 39.3567 28.1898 38.6518 28.5013C37.6728 28.8517 36.6546 29.0854 35.558 29.0854Z" fill="#336633"/>
<path d="M42.9987 26.2819C42.8813 26.2819 42.7637 26.2819 42.6462 26.3208C42.0196 26.3597 41.4715 26.5934 41.0015 26.9439C40.884 27.0217 40.7665 27.1385 40.649 27.2164L40.6099 27.2553C40.5707 27.2942 40.5316 27.3332 40.5316 27.3722C39.9833 27.9951 39.67 28.7349 39.67 29.5526C39.67 29.7472 39.67 29.9419 39.7091 30.0977C39.7875 30.0587 39.8658 30.0198 39.9049 29.9809C40.649 29.5915 41.3539 29.1632 41.9414 28.6181L41.9805 28.5791C42.0197 28.5402 42.098 28.4623 42.1763 28.4234C42.8421 27.8004 43.4295 27.1385 43.8995 26.3598C43.6645 26.3208 43.3512 26.2819 42.9987 26.2819ZM42.9987 26.2819C42.8813 26.2819 42.7637 26.2819 42.6462 26.3208C42.0196 26.3597 41.4715 26.5934 41.0015 26.9439C40.884 27.0217 40.7665 27.1385 40.649 27.2164L40.6099 27.2553C40.5707 27.2942 40.5316 27.3332 40.5316 27.3722C39.9833 27.9951 39.67 28.7349 39.67 29.5526C39.67 29.7472 39.67 29.9419 39.7091 30.0977C39.7875 30.0587 39.8658 30.0198 39.9049 29.9809C40.649 29.5915 41.3539 29.1632 41.9414 28.6181L41.9805 28.5791C42.0197 28.5402 42.098 28.4623 42.1763 28.4234C42.8421 27.8004 43.4295 27.1385 43.8995 26.3598C43.6645 26.3208 43.3512 26.2819 42.9987 26.2819ZM42.9987 26.2819C42.8813 26.2819 42.7637 26.2819 42.6462 26.3208C42.0196 26.3597 41.4715 26.5934 41.0015 26.9439C40.884 27.0217 40.7665 27.1385 40.649 27.2164L40.6099 27.2553C40.5707 27.2942 40.5316 27.3332 40.5316 27.3722C39.9833 27.9951 39.67 28.7349 39.67 29.5526C39.67 29.7472 39.67 29.9419 39.7091 30.0977C39.7875 30.0587 39.8658 30.0198 39.9049 29.9809C40.649 29.5915 41.3539 29.1632 41.9414 28.6181L41.9805 28.5791C42.0197 28.5402 42.098 28.4623 42.1763 28.4234C42.8421 27.8004 43.4295 27.1385 43.8995 26.3598C43.6645 26.3208 43.3512 26.2819 42.9987 26.2819ZM59.0552 40.8441L45.4661 27.3332C45.1136 27.8783 44.722 28.4234 44.2912 28.8906L57.6845 42.2069C58.1936 42.713 58.1936 43.5696 57.6845 44.1148C57.1754 44.6209 56.2747 44.6209 55.7655 44.1148L42.2547 30.6817C41.7064 31.0711 41.1191 31.4215 40.5317 31.6941C40.5709 31.7719 40.649 31.8109 40.6882 31.8887L41.9807 33.1736L54.3949 45.5165C55.0215 46.1395 55.8439 46.4899 56.7446 46.4899C57.6453 46.4899 58.4677 46.1395 59.0943 45.5165C60.3083 44.1926 60.3083 42.129 59.0552 40.8441ZM42.0197 28.5791C42.0589 28.5402 42.1372 28.4623 42.2155 28.4234C42.8813 27.8004 43.4687 27.1385 43.9386 26.3598C43.6645 26.3208 43.3512 26.2819 42.9987 26.2819C42.8813 26.2819 42.7637 26.2819 42.6462 26.3208C42.0196 26.3597 41.4715 26.5934 41.0015 26.9439C40.884 27.0217 40.7665 27.1385 40.649 27.2164L40.6099 27.2553C40.5707 27.2942 40.5316 27.3332 40.5316 27.3722C39.9833 27.9951 39.67 28.7349 39.67 29.5526C39.67 29.7472 39.67 29.9419 39.7091 30.0977C39.7875 30.0587 39.8658 30.0198 39.9049 29.9809C40.649 29.6304 41.3931 29.1632 42.0197 28.5791ZM42.9987 26.2819C42.8813 26.2819 42.7637 26.2819 42.6462 26.3208C42.0196 26.3597 41.4715 26.5934 41.0015 26.9439C40.884 27.0217 40.7665 27.1385 40.649 27.2164L40.6099 27.2553C40.5707 27.2942 40.5316 27.3332 40.5316 27.3722C39.9833 27.9951 39.67 28.7349 39.67 29.5526C39.67 29.7472 39.67 29.9419 39.7091 30.0977C39.7875 30.0587 39.8658 30.0198 39.9049 29.9809C40.649 29.5915 41.3539 29.1632 41.9414 28.6181L41.9805 28.5791C42.0197 28.5402 42.098 28.4623 42.1763 28.4234C42.8421 27.8004 43.4295 27.1385 43.8995 26.3598C43.6645 26.3208 43.3512 26.2819 42.9987 26.2819Z" fill="#336633"/>
</svg>
