<svg width="92" height="29" viewBox="0 0 92 29" fill="none" xmlns="http://www.w3.org/2000/svg">
<path fill-rule="evenodd" clip-rule="evenodd" d="M66.6221 12.9521V28.049H74.4805V19.1027H83.3867C87.1351 19.073 90.3192 16.5175 91.5199 12.9521H66.6221Z" fill="#37A72E"/>
<path fill-rule="evenodd" clip-rule="evenodd" d="M65.5742 0.510742C66.032 6.68151 71.5018 11.5538 78.1822 11.5538C78.204 11.5538 91.8463 11.5538 91.8463 11.5538C91.9471 10.9879 91.9999 10.4038 91.9999 9.8065C91.9999 4.69479 88.1358 0.548558 83.3556 0.510999L65.5742 0.510742Z" fill="url(#paint0_linear_166_74)"/>
<path fill-rule="evenodd" clip-rule="evenodd" d="M53.9436 11.407L53.9498 11.3929L53.9506 11.3931C54.0311 11.2388 54.1855 11.1345 54.3628 11.1345C54.6188 11.1345 54.8271 11.3522 54.8341 11.6237L54.8343 11.6237V27.9088H62.6927V0.510742H54.8343C53.8377 0.546143 52.7118 1.32661 52.2932 2.28466L46.0395 16.5983C46.024 16.6568 45.9999 16.7114 45.9686 16.7605L45.9665 16.7652L45.9657 16.765C45.8711 16.9103 45.7135 17.0055 45.5351 17.0055C45.2458 17.0055 45.0112 16.7551 45.0112 16.4463V0.510742H37.1528V27.9088H45.0112V27.9056C45.9969 27.8507 47.0963 27.079 47.5089 26.1348L53.9275 11.4439C53.9324 11.4313 53.9378 11.419 53.9436 11.407Z" fill="#37A72E"/>
<path fill-rule="evenodd" clip-rule="evenodd" d="M24.5998 11.8753L20.0069 27.9088H14.3538L9.75808 11.8656C9.71376 11.6087 9.50283 11.414 9.2493 11.414C8.96358 11.414 8.73195 11.6612 8.73195 11.9662C8.73195 11.9685 8.73197 11.9708 8.73199 11.9732L8.73195 27.9088H0.873535V0.510742H7.61868H9.62751C11.0735 0.510742 12.5888 1.7084 13.0113 3.18348L16.8358 16.5345C17.0261 17.1988 17.3348 17.198 17.5249 16.5345L21.3494 3.18348C21.7722 1.70737 23.287 0.510742 24.7332 0.510742L26.7414 0.510742H33.486V27.9088H25.6275V11.9732C25.6275 11.9708 25.6275 11.9685 25.6275 11.9662C25.6275 11.6612 25.3959 11.414 25.1102 11.414C24.8535 11.414 24.6404 11.6136 24.5998 11.8753Z" fill="#37A72E"/>
<defs>
<linearGradient id="paint0_linear_166_74" x1="65.5742" y1="6.03228" x2="91.9999" y2="6.03228" gradientUnits="userSpaceOnUse">
<stop stop-color="#00A0E5"/>
<stop offset="1" stop-color="#0077C3"/>
</linearGradient>
</defs>
</svg>
