<svg width="81" height="29" viewBox="0 0 81 29" fill="none" xmlns="http://www.w3.org/2000/svg">
<path d="M34.7987 27.842H28.2935L32.3623 0.99707H38.8672L34.7987 27.842Z" fill="#00579F"/>
<path d="M58.3807 1.65266C57.0975 1.10949 55.0624 0.509766 52.546 0.509766C46.1218 0.509766 41.598 4.16506 41.5703 9.39103C41.5169 13.2467 44.8092 15.3883 47.2715 16.6739C49.7883 17.9876 50.6439 18.8451 50.6439 20.0161C50.6183 21.8145 48.6102 22.6435 46.7372 22.6435C44.1401 22.6435 42.7484 22.2161 40.6336 21.2155L39.777 20.7866L38.8667 26.8127C40.3924 27.5544 43.2034 28.2126 46.1218 28.2414C52.9476 28.2414 57.3914 24.6427 57.444 19.0736C57.47 16.0176 55.7315 13.676 51.9836 11.7626C49.7083 10.5343 48.3149 9.70608 48.3149 8.44931C48.3416 7.30679 49.4934 6.13656 52.0618 6.13656C54.1766 6.07925 55.7305 6.62166 56.9076 7.16445L57.496 7.44951L58.3807 1.65266V1.65266Z" fill="#00579F"/>
<path d="M67.0266 18.3318C67.5623 16.7896 69.6238 10.8208 69.6238 10.8208C69.5968 10.8781 70.1585 9.25014 70.4797 8.25072L70.9343 10.5638C70.9343 10.5638 72.1662 16.9896 72.4337 18.3318C71.417 18.3318 68.3115 18.3318 67.0266 18.3318ZM75.0565 0.99707H70.0247C68.473 0.99707 67.2941 1.48217 66.6246 3.22441L56.9619 27.8416H63.7877C63.7877 27.8416 64.9114 24.5283 65.153 23.8147C65.9018 23.8147 72.5419 23.8147 73.5052 23.8147C73.6919 24.7572 74.2814 27.8416 74.2814 27.8416H80.3046L75.0565 0.99707V0.99707Z" fill="#00579F"/>
<path d="M22.8597 0.99707L16.4889 19.3028L15.7928 15.5902C14.6149 11.3063 10.921 6.65196 6.79883 4.3377L12.6342 27.8136H19.5134L29.7385 0.99707H22.8597V0.99707Z" fill="#00579F"/>
<path d="M10.5734 0.998047H0.107074L0 1.54046C8.16437 3.76817 13.5715 9.138 15.793 15.5923L13.5178 3.25461C13.1432 1.54008 11.992 1.0546 10.5734 0.998047Z" fill="#FAA61A"/>
</svg>
