<svg width="42" height="36" viewBox="0 0 42 36" fill="none" xmlns="http://www.w3.org/2000/svg">
<path d="M41.5715 22.8213V22.2871H41.4422L41.2927 22.654L41.144 22.2871H41.0139V22.8213H41.1058V22.4185L41.2456 22.7661H41.3406L41.4804 22.4176V22.8213H41.5715ZM40.7514 22.8213V22.3782H40.9172V22.288H40.4946V22.3782H40.6604V22.8213H40.7514Z" fill="#0099DF"/>
<path d="M26.8778 25.1189H15.6938V3.46191H26.8778V25.1189Z" fill="#6C6BBD"/>
<path d="M16.4106 14.2882C16.4106 9.89495 18.3196 5.98159 21.2925 3.45967C19.1185 1.61552 16.3748 0.514806 13.3931 0.514806C6.334 0.514806 0.611816 6.68125 0.611816 14.2882C0.611816 21.8951 6.334 28.0615 13.3931 28.0615C16.3748 28.0615 19.1185 26.9608 21.2925 25.1167C18.3196 22.5947 16.4106 18.6814 16.4106 14.2882Z" fill="#EB001B"/>
<path d="M41.9612 14.2882C41.9612 21.8951 36.2391 28.0615 29.18 28.0615C26.1982 28.0615 23.4546 26.9608 21.2798 25.1167C24.2534 22.5947 26.1625 18.6814 26.1625 14.2882C26.1625 9.89495 24.2534 5.98159 21.2798 3.45967C23.4546 1.61552 26.1982 0.514806 29.18 0.514806C36.2391 0.514806 41.9612 6.68125 41.9612 14.2882Z" fill="#0099DF"/>
<path d="M30.6486 31.2354C30.7973 31.2354 31.0111 31.266 31.1744 31.3352L30.9469 32.0848C30.7908 32.0156 30.6348 31.9928 30.4852 31.9928C30.0025 31.9928 29.7611 32.3291 29.7611 32.9333V34.9841H29.0224V31.3273H29.7538V31.7713C29.9456 31.4499 30.2227 31.2354 30.6486 31.2354V31.2354ZM27.9196 32.0541H26.7127V33.7065C26.7127 34.0734 26.833 34.3186 27.2028 34.3186C27.3946 34.3186 27.6359 34.2494 27.8554 34.112L28.0683 34.7924C27.8342 34.9684 27.4653 35.0761 27.1459 35.0761C26.2722 35.0761 25.9675 34.5708 25.9675 33.7214V32.0541H25.2783V31.3273H25.9675V30.2179H26.7127V31.3273H27.9196V32.0541ZM18.4687 32.8344C18.5476 32.3063 18.845 31.9464 19.3708 31.9464C19.8463 31.9464 20.1518 32.2678 20.2299 32.8344H18.4687ZM20.997 33.1557C20.9897 32.0156 20.3363 31.2354 19.3847 31.2354C18.3907 31.2354 17.6951 32.0156 17.6951 33.1557C17.6951 34.3177 18.4192 35.0752 19.435 35.0752C19.9462 35.0752 20.4143 34.9377 20.8264 34.5629L20.4639 33.9736C20.1803 34.2188 19.8178 34.3563 19.4773 34.3563C19.0019 34.3563 18.5687 34.119 18.4622 33.4613H20.9824C20.9897 33.3615 20.997 33.2626 20.997 33.1557V33.1557ZM24.2413 32.2608C24.0357 32.1224 23.6172 31.9464 23.184 31.9464C22.7793 31.9464 22.5379 32.1076 22.5379 32.3755C22.5379 32.6198 22.7931 32.689 23.1125 32.7345L23.4603 32.7879C24.1991 32.9035 24.646 33.2398 24.646 33.8825C24.646 34.5787 24.078 35.0761 23.0987 35.0761C22.5444 35.0761 22.0332 34.9228 21.6285 34.6015L21.9763 33.9815C22.225 34.1881 22.5948 34.3642 23.106 34.3642C23.6099 34.3642 23.8797 34.2039 23.8797 33.9202C23.8797 33.7144 23.6879 33.5988 23.2831 33.5384L22.9353 33.485C22.1754 33.3694 21.7634 33.0025 21.7634 32.4062C21.7634 31.6794 22.3177 31.2354 23.1767 31.2354C23.7163 31.2354 24.2064 31.3659 24.5607 31.6181L24.2413 32.2608ZM33.3476 31.9911C33.1956 31.9911 33.055 32.02 32.9241 32.0769C32.7941 32.1347 32.6811 32.2153 32.5861 32.3186C32.491 32.4219 32.4162 32.5463 32.3618 32.6908C32.3073 32.8352 32.2805 32.9946 32.2805 33.168C32.2805 33.3422 32.3073 33.5007 32.3618 33.6452C32.4162 33.7897 32.491 33.9141 32.5861 34.0174C32.6811 34.1207 32.7941 34.2013 32.9241 34.2591C33.055 34.3169 33.1956 34.3449 33.3476 34.3449C33.4995 34.3449 33.6409 34.3169 33.771 34.2591C33.9018 34.2013 34.0156 34.1207 34.1107 34.0174C34.2074 33.9141 34.2822 33.7897 34.3374 33.6452C34.3919 33.5007 34.4187 33.3422 34.4187 33.168C34.4187 32.9946 34.3919 32.8352 34.3374 32.6908C34.2822 32.5463 34.2074 32.4219 34.1107 32.3186C34.0156 32.2153 33.9018 32.1347 33.771 32.0769C33.6409 32.02 33.4995 31.9911 33.3476 31.9911V31.9911ZM33.3476 31.2354C33.6109 31.2354 33.8547 31.2844 34.079 31.3834C34.3033 31.4815 34.4975 31.6172 34.6609 31.7897C34.825 31.9622 34.9526 32.1662 35.0453 32.4009C35.1379 32.6365 35.1842 32.8922 35.1842 33.168C35.1842 33.4438 35.1379 33.6995 35.0453 33.9351C34.9526 34.1698 34.825 34.3747 34.6609 34.5472C34.4975 34.7197 34.3033 34.8545 34.079 34.9535C33.8547 35.0515 33.6109 35.1006 33.3476 35.1006C33.0842 35.1006 32.8404 35.0515 32.6161 34.9535C32.3918 34.8545 32.1992 34.7197 32.0367 34.5472C31.8741 34.3747 31.7465 34.1698 31.6539 33.9351C31.5613 33.6995 31.5149 33.4438 31.5149 33.168C31.5149 32.8922 31.5613 32.6365 31.6539 32.4009C31.7465 32.1662 31.8741 31.9622 32.0367 31.7897C32.1992 31.6172 32.3918 31.4815 32.6161 31.3834C32.8404 31.2844 33.0842 31.2354 33.3476 31.2354V31.2354ZM14.155 33.1557C14.155 32.513 14.5459 31.985 15.1846 31.985C15.795 31.985 16.207 32.4902 16.207 33.1557C16.207 33.8212 15.795 34.3256 15.1846 34.3256C14.5459 34.3256 14.155 33.7985 14.155 33.1557V33.1557ZM16.9027 33.1557V31.3273H16.1648V31.7713C15.9299 31.4421 15.5756 31.2354 15.0928 31.2354C14.1411 31.2354 13.3959 32.0384 13.3959 33.1557C13.3959 34.2722 14.1411 35.0761 15.0928 35.0761C15.5756 35.0761 15.9299 34.8694 16.1648 34.5402V34.9841H16.9027V33.1557ZM12.7425 34.9841V32.689C12.7425 31.8247 12.2313 31.2433 11.4081 31.2354C10.9749 31.2275 10.5271 31.3729 10.215 31.886C9.98097 31.4806 9.61119 31.2354 9.09269 31.2354C8.73104 31.2354 8.3759 31.3501 8.09877 31.7783V31.3273H7.36084V34.9841H8.10608V32.957C8.10608 32.3221 8.43278 31.985 8.93666 31.985C9.42671 31.985 9.67539 32.3291 9.67539 32.9491V34.9841H10.4206V32.957C10.4206 32.3221 10.762 31.985 11.2512 31.985C11.7559 31.985 11.9973 32.3291 11.9973 32.9491V34.9841H12.7425Z" fill="#231F20"/>
<path d="M35.9801 34.7095V34.7996H36.0573C36.0743 34.7996 36.089 34.7953 36.0987 34.7883C36.1093 34.7813 36.115 34.769 36.115 34.7541C36.115 34.7392 36.1093 34.7278 36.0987 34.7208C36.089 34.713 36.0743 34.7095 36.0573 34.7095H35.9801ZM36.0581 34.6464C36.0979 34.6464 36.1288 34.656 36.1507 34.6753C36.1727 34.6946 36.1832 34.7208 36.1832 34.7541C36.1832 34.7821 36.1751 34.8049 36.1572 34.8233C36.1402 34.8408 36.115 34.8522 36.0833 34.8566L36.1857 34.9835H36.106L36.011 34.8574H35.9801V34.9835H35.9134V34.6464H36.0581ZM36.0378 35.0991C36.0743 35.0991 36.1085 35.0921 36.1394 35.0772C36.1711 35.0623 36.1987 35.0422 36.2223 35.0168C36.2458 34.9914 36.2645 34.9616 36.2783 34.9266C36.2913 34.8925 36.2986 34.8557 36.2986 34.8163C36.2986 34.7769 36.2913 34.7401 36.2783 34.7059C36.2645 34.6718 36.2458 34.6411 36.2223 34.6158C36.1987 34.5904 36.1711 34.5702 36.1394 34.5562C36.1085 34.5413 36.0743 34.5343 36.0378 34.5343C36.0012 34.5343 35.9663 34.5413 35.9346 34.5562C35.9021 34.5702 35.8736 34.5904 35.85 34.6158C35.8265 34.6411 35.8078 34.6718 35.7948 34.7059C35.781 34.7401 35.7745 34.7769 35.7745 34.8163C35.7745 34.8557 35.781 34.8925 35.7948 34.9266C35.8078 34.9616 35.8265 34.9914 35.85 35.0168C35.8736 35.0422 35.9021 35.0623 35.9346 35.0772C35.9663 35.0921 36.0012 35.0991 36.0378 35.0991V35.0991ZM36.0378 34.4529C36.0857 34.4529 36.1296 34.4625 36.1711 34.4818C36.2133 34.5002 36.2491 34.5264 36.2808 34.5597C36.3117 34.5921 36.336 34.6306 36.3539 34.6753C36.3718 34.7191 36.3807 34.7664 36.3807 34.8163C36.3807 34.8662 36.3718 34.9135 36.3539 34.9573C36.336 35.001 36.3117 35.0396 36.2808 35.072C36.2491 35.1053 36.2133 35.1315 36.1711 35.1508C36.1296 35.1701 36.0857 35.1797 36.0378 35.1797C35.989 35.1797 35.9443 35.1701 35.9021 35.1508C35.8598 35.1315 35.8232 35.1053 35.7923 35.072C35.7615 35.0396 35.7371 35.001 35.7192 34.9573C35.7013 34.9135 35.6924 34.8662 35.6924 34.8163C35.6924 34.7664 35.7013 34.7191 35.7192 34.6753C35.7371 34.6306 35.7615 34.5921 35.7923 34.5597C35.8232 34.5264 35.8598 34.5002 35.9021 34.4818C35.9443 34.4625 35.989 34.4529 36.0378 34.4529" fill="#231F20"/>
</svg>
