<svg width="42" height="36" viewBox="0 0 42 36" fill="none" xmlns="http://www.w3.org/2000/svg">
<path d="M40.3309 34.7055V34.7957H40.4078C40.4248 34.7957 40.4394 34.7914 40.4499 34.7844C40.4596 34.7773 40.4653 34.7651 40.4653 34.7502C40.4653 34.7353 40.4596 34.7239 40.4499 34.7169C40.4394 34.709 40.4248 34.7055 40.4078 34.7055H40.3309ZM40.4086 34.6425C40.4483 34.6425 40.479 34.6521 40.5009 34.6714C40.5227 34.6907 40.5332 34.7169 40.5332 34.7502C40.5332 34.7782 40.5251 34.801 40.5073 34.8194C40.4903 34.8369 40.4661 34.8483 40.4337 34.8527L40.5356 34.9796H40.4564L40.3617 34.8535H40.3309V34.9796H40.2646V34.6425H40.4086ZM40.3884 35.0961C40.4248 35.0961 40.4588 35.0882 40.4895 35.0733C40.5211 35.0584 40.5486 35.0383 40.5721 35.0129C40.5955 34.9875 40.6141 34.9577 40.6279 34.9227C40.6408 34.8886 40.6481 34.8518 40.6481 34.8124C40.6481 34.773 40.6408 34.7362 40.6279 34.702C40.6141 34.6679 40.5955 34.6372 40.5721 34.6118C40.5486 34.5865 40.5211 34.5663 40.4895 34.5514C40.4588 34.5374 40.4248 34.5304 40.3884 34.5304C40.352 34.5304 40.3172 34.5374 40.2856 34.5514C40.2533 34.5663 40.2249 34.5865 40.2015 34.6118C40.178 34.6372 40.1594 34.6679 40.1465 34.702C40.1327 34.7362 40.1262 34.773 40.1262 34.8124C40.1262 34.8518 40.1327 34.8886 40.1465 34.9227C40.1594 34.9577 40.178 34.9875 40.2015 35.0129C40.2249 35.0383 40.2533 35.0584 40.2856 35.0733C40.3172 35.0882 40.352 35.0961 40.3884 35.0961V35.0961ZM40.3884 34.449C40.4361 34.449 40.4798 34.4586 40.5219 34.4779C40.5632 34.4963 40.5988 34.5225 40.6303 34.5558C40.6611 34.5882 40.6853 34.6267 40.7031 34.6714C40.7209 34.7152 40.7298 34.7625 40.7298 34.8124C40.7298 34.8623 40.7209 34.9096 40.7031 34.9534C40.6853 34.9971 40.6611 35.0357 40.6303 35.0689C40.5988 35.1013 40.5632 35.1276 40.5219 35.1469C40.4798 35.1661 40.4361 35.1758 40.3884 35.1758C40.3398 35.1758 40.2953 35.1661 40.2533 35.1469C40.2112 35.1276 40.1748 35.1013 40.144 35.0689C40.1133 35.0357 40.089 34.9971 40.0712 34.9534C40.0534 34.9096 40.0445 34.8623 40.0445 34.8124C40.0445 34.7625 40.0534 34.7152 40.0712 34.6714C40.089 34.6267 40.1133 34.5882 40.144 34.5558C40.1748 34.5225 40.2112 34.4963 40.2533 34.4779C40.2953 34.4586 40.3398 34.449 40.3884 34.449V34.449ZM8.86419 33.1503C8.86419 32.5076 9.25338 31.9796 9.88935 31.9796C10.497 31.9796 10.9072 32.4848 10.9072 33.1503C10.9072 33.8159 10.497 34.3211 9.88935 34.3211C9.25338 34.3211 8.86419 33.7931 8.86419 33.1503V33.1503ZM11.5998 33.1503V31.3219H10.8651V31.7659C10.6321 31.4366 10.2785 31.23 9.79792 31.23C8.85043 31.23 8.10766 32.0339 8.10766 33.1503C8.10766 34.2677 8.85043 35.0707 9.79792 35.0707C10.2785 35.0707 10.6321 34.864 10.8651 34.5348V34.9788H11.5998V33.1503ZM36.4269 33.1503C36.4269 32.5076 36.8161 31.9796 37.4521 31.9796C38.0605 31.9796 38.47 32.4848 38.47 33.1503C38.47 33.8159 38.0605 34.3211 37.4521 34.3211C36.8161 34.3211 36.4269 33.7931 36.4269 33.1503ZM39.1634 33.1503V29.8534H38.4279V31.7659C38.1949 31.4366 37.8413 31.23 37.3607 31.23C36.4132 31.23 35.6704 32.0339 35.6704 33.1503C35.6704 34.2677 36.4132 35.0707 37.3607 35.0707C37.8413 35.0707 38.1949 34.864 38.4279 34.5348V34.9788H39.1634V33.1503ZM20.7194 31.9419C21.1928 31.9419 21.497 32.2633 21.5747 32.829H19.8213C19.8998 32.3009 20.1959 31.9419 20.7194 31.9419ZM20.734 31.23C19.7436 31.23 19.051 32.0102 19.051 33.1503C19.051 34.3132 19.772 35.0707 20.7834 35.0707C21.2923 35.0707 21.7584 34.9332 22.1686 34.5584L21.8085 33.9691C21.5253 34.2134 21.1645 34.3518 20.8254 34.3518C20.3521 34.3518 19.9208 34.1145 19.8148 33.456H22.3239C22.3312 33.357 22.3385 33.2572 22.3385 33.1503C22.3312 32.0102 21.6807 31.23 20.734 31.23ZM29.6052 33.1503C29.6052 32.5076 29.9944 31.9796 30.6304 31.9796C31.238 31.9796 31.6483 32.4848 31.6483 33.1503C31.6483 33.8159 31.238 34.3211 30.6304 34.3211C29.9944 34.3211 29.6052 33.7931 29.6052 33.1503V33.1503ZM32.3409 33.1503V31.3219H31.6062V31.7659C31.3723 31.4366 31.0196 31.23 30.5389 31.23C29.5915 31.23 28.8487 32.0339 28.8487 33.1503C28.8487 34.2677 29.5915 35.0707 30.5389 35.0707C31.0196 35.0707 31.3723 34.864 31.6062 34.5348V34.9788H32.3409V33.1503ZM25.456 33.1503C25.456 34.2598 26.1697 35.0707 27.2588 35.0707C27.7677 35.0707 28.1067 34.9481 28.4741 34.6346L28.1213 33.9919C27.8454 34.2064 27.5557 34.3211 27.2369 34.3211C26.6503 34.3132 26.219 33.8544 26.219 33.1503C26.219 32.4463 26.6503 31.9874 27.2369 31.9796C27.5557 31.9796 27.8454 32.0943 28.1213 32.3088L28.4741 31.6661C28.1067 31.3526 27.7677 31.23 27.2588 31.23C26.1697 31.23 25.456 32.0409 25.456 33.1503V33.1503ZM34.9284 31.23C34.5045 31.23 34.2285 31.4445 34.0376 31.7659V31.3219H33.3094V34.9788H34.0449V32.9288C34.0449 32.3237 34.2852 31.9874 34.7658 31.9874C34.9147 31.9874 35.07 32.0102 35.2254 32.0794L35.4519 31.3298C35.2893 31.2606 35.0773 31.23 34.9284 31.23V31.23ZM15.2336 31.6127C14.88 31.3605 14.3929 31.23 13.8557 31.23C12.9996 31.23 12.4486 31.6739 12.4486 32.4008C12.4486 32.9971 12.8588 33.3649 13.6145 33.4796L13.9617 33.533C14.3646 33.5943 14.5547 33.709 14.5547 33.9157C14.5547 34.1985 14.2861 34.3597 13.7845 34.3597C13.2755 34.3597 12.9082 34.1836 12.6606 33.977L12.3143 34.5961C12.7172 34.9175 13.2262 35.0707 13.7772 35.0707C14.753 35.0707 15.3186 34.5733 15.3186 33.8772C15.3186 33.2344 14.8735 32.8981 14.138 32.7834L13.7917 32.7291C13.4738 32.6836 13.2189 32.6153 13.2189 32.3701C13.2189 32.1022 13.4592 31.9419 13.8621 31.9419C14.2934 31.9419 14.7109 32.1179 14.9156 32.2554L15.2336 31.6127ZM24.7133 31.23C24.2893 31.23 24.0134 31.4445 23.8232 31.7659V31.3219H23.095V34.9788H23.8297V32.9288C23.8297 32.3237 24.07 31.9874 24.5506 31.9874C24.6995 31.9874 24.8549 32.0102 25.0102 32.0794L25.2368 31.3298C25.0741 31.2606 24.8621 31.23 24.7133 31.23V31.23ZM18.4434 31.3219H17.2418V30.2124H16.4991V31.3219H15.8137V32.0487H16.4991V33.7169C16.4991 34.5654 16.8033 35.0707 17.6723 35.0707C17.9911 35.0707 18.3584 34.9639 18.5915 34.7879L18.3795 34.1066C18.1602 34.2441 17.9199 34.3132 17.7289 34.3132C17.3616 34.3132 17.2418 34.0681 17.2418 33.7011V32.0487H18.4434V31.3219ZM7.45794 34.9788V32.6836C7.45794 31.8193 6.949 31.2379 6.12855 31.23C5.69729 31.2221 5.25227 31.3675 4.94076 31.8806C4.70773 31.4752 4.34039 31.23 3.82417 31.23C3.4633 31.23 3.11052 31.3447 2.83461 31.7729V31.3219H2.09912V34.9788H2.84109V32.9516C2.84109 32.3167 3.16635 31.9796 3.66882 31.9796C4.15672 31.9796 4.4035 32.3237 4.4035 32.9437V34.9788H5.14627V32.9516C5.14627 32.3167 5.4853 31.9796 5.9732 31.9796C6.47485 31.9796 6.71516 32.3237 6.71516 32.9437V34.9788H7.45794Z" fill="#231F20"/>
<path d="M40.784 22.8174V22.2832H40.6554L40.5065 22.6501L40.3584 22.2832H40.2289V22.8174H40.3204V22.4146L40.4595 22.7622H40.5542L40.6934 22.4137V22.8174H40.784ZM39.9676 22.8174V22.3743H40.1327V22.2841H39.7119V22.3743H39.877V22.8174H39.9676Z" fill="#F79410"/>
<path d="M26.1553 25.1153H15.0205V3.45801H26.1553V25.1153Z" fill="#FF5F00"/>
<path d="M15.7337 14.2851C15.7337 9.89179 17.6344 5.97838 20.5941 3.45643C18.4297 1.61226 15.6981 0.51153 12.7295 0.51153C5.70142 0.51153 0.00439453 6.67805 0.00439453 14.2851C0.00439453 21.8921 5.70142 28.0586 12.7295 28.0586C15.6981 28.0586 18.4297 26.9579 20.5941 25.1137C17.6344 22.5917 15.7337 18.6783 15.7337 14.2851Z" fill="#EB001B"/>
<path d="M41.1726 14.2851C41.1726 21.8921 35.4755 28.0586 28.4475 28.0586C25.4788 28.0586 22.7472 26.9579 20.582 25.1137C23.5426 22.5917 25.4432 18.6783 25.4432 14.2851C25.4432 9.89179 23.5426 5.97838 20.582 3.45643C22.7472 1.61226 25.4788 0.51153 28.4475 0.51153C35.4755 0.51153 41.1726 6.67805 41.1726 14.2851Z" fill="#F79E1B"/>
</svg>
