<svg width="30" height="27" viewBox="0 0 30 27" fill="none" xmlns="http://www.w3.org/2000/svg">
<g clip-path="url(#clip0_516_10)">
<path d="M4.17675 17.7904C4.17675 18.8845 4.63435 19.5312 5.54955 19.7303H0C0.777793 19.5338 1.23669 18.8871 1.37669 17.7904V2.11153C1.37669 0.98376 0.92687 0.321584 0.0272226 0.125H5.57678C4.88713 0.272438 4.42046 0.910042 4.17675 2.03781V7.54345C4.17675 9.73949 7.2257 9.70069 9.00685 9.84813C7.21014 10.0576 4.15342 10.1236 4.17675 12.471V17.7904Z" fill="#17562F"/>
<path d="M16.2131 16.4674C17.6591 18.2748 19.7491 19.455 22.0466 19.7614C21.6007 19.8416 21.1498 19.8909 20.6971 19.9089C18.0846 20.0056 15.5399 19.0672 13.6185 17.2986C11.6971 15.5299 10.5551 13.0747 10.4419 10.469C10.3717 9.13388 10.5844 7.79904 11.0662 6.55153C11.548 5.30402 12.2881 4.17188 13.2381 3.22899C14.1538 2.25439 15.2668 1.48509 16.5031 0.972042C17.7394 0.458997 19.0709 0.213927 20.4093 0.253072C18.37 0.838296 16.5971 2.11073 15.3925 3.85366C14.1724 5.63505 13.5851 7.77265 13.7242 9.92577C13.7902 12.324 14.6674 14.6295 16.2131 16.4674ZM24.9477 12.1102C24.9477 10.8841 24.4655 10.1573 23.501 9.92965H29.2956C29.0242 10.0376 28.7776 10.1995 28.571 10.4057C28.3644 10.6118 28.2021 10.8577 28.0939 11.1285C27.9684 11.4218 27.8695 11.7256 27.7983 12.0365V20.8517C27.7983 22.0933 27.1359 23.3711 25.8111 24.6851C24.5008 25.9923 22.7289 26.7348 20.876 26.7531C21.4256 26.7047 21.9595 26.5448 22.445 26.2833C22.9305 26.0218 23.3573 25.6641 23.6994 25.2321C24.0465 24.8249 24.3357 24.3718 24.5588 23.8858C24.7571 22.8831 24.887 21.8681 24.9477 20.8478V12.1102ZM24.8038 1.20754C25.6454 1.654 26.363 2.30161 26.8924 3.09244C27.4217 3.88328 27.7463 4.79268 27.8372 5.73931L27.7983 0.253072H22.1788C23.1015 0.421226 23.989 0.743936 24.8038 1.20754Z" fill="#17562F"/>
</g>
<defs>
<clipPath id="clip0_516_10">
<rect width="30" height="26.7568" fill="white"/>
</clipPath>
</defs>
</svg>
